<svg id="Layer_1" data-name="Layer 1" xmlns="http://www.w3.org/2000/svg" viewBox="0 0 609.18 724.56"><defs><style>.cls-1,.cls-2,.cls-4{fill:#fff;}.cls-1{stroke:#231f20;stroke-width:35.68px;}.cls-1,.cls-2,.cls-4,.cls-5{stroke-miterlimit:10;}.cls-2,.cls-4,.cls-5{stroke:#fff;}.cls-2{stroke-width:96.85px;}.cls-3,.cls-6{fill:#231f20;}.cls-4,.cls-5{stroke-width:30.58px;}.cls-5{fill:none;}.cls-6{font-size:61.17px;font-family:DINCondensed-Bold, DIN Condensed;font-weight:700;}</style></defs><title>champignylogo</title><path class="cls-1" d="M240.06,486.15c0-140.76,114.11-254.86,254.87-254.86s254.86,114.1,254.86,254.86S635.69,741,494.93,741,240.06,626.91,240.06,486.15" transform="translate(-190.34 -134.44)"/><polygon class="cls-2" points="304.59 96.85 83.87 479.14 525.31 479.14 304.59 96.85"/><line class="cls-3" x1="304.59" y1="73.26" x2="63.44" y2="490.94"/><polyline class="cls-3" points="63.44 490.94 545.74 490.94 304.59 73.26"/><line class="cls-4" x1="187.7" y1="245.69" x2="414.68" y2="245.69"/><path class="cls-5" d="M494.93,625.38V562.67s-51.83-6.23-51.83-55c0-53.21,51.83-59.08,51.83-59.08V372.66" transform="translate(-190.34 -134.44)"/><text class="cls-6" transform="translate(111.57 705.48)"><tspan xml:space="preserve"> CHAMPIGNY DESIGN</tspan></text></svg>