<?xml version="1.0" encoding="utf-8"?>
<!-- Generator: Adobe Illustrator 23.0.1, SVG Export Plug-In . SVG Version: 6.00 Build 0)  -->
<svg version="1.1" id="Layer_1" xmlns="http://www.w3.org/2000/svg" xmlns:xlink="http://www.w3.org/1999/xlink" x="0px" y="0px"
	 viewBox="0 0 1000 1050" style="enable-background:new 0 0 1000 1050;" xml:space="preserve">
<style type="text/css">
	.st0{fill:#FFFFFF;stroke:#231F20;stroke-width:35.6808;stroke-miterlimit:10;}
	.st1{fill:#FFFFFF;stroke:#FFFFFF;stroke-width:96.848;stroke-miterlimit:10;}
	.st2{fill:#231F20;}
	.st3{fill:#FFFFFF;stroke:#FFFFFF;stroke-width:30.5836;stroke-miterlimit:10;}
	.st4{fill:none;stroke:#FFFFFF;stroke-width:30.5836;stroke-miterlimit:10;}
</style>
<path class="st0" d="M240.06,486.15c0-140.76,114.11-254.86,254.87-254.86s254.87,114.11,254.87,254.86S635.69,741.01,494.93,741.01
	S240.06,626.91,240.06,486.15"/>
<polygon class="st1" points="494.93,231.29 274.21,613.58 715.65,613.58 "/>
<line class="st2" x1="494.93" y1="207.7" x2="253.78" y2="625.38"/>
<polyline class="st2" points="253.78,625.38 736.08,625.38 494.93,207.7 "/>
<line class="st3" x1="378.04" y1="380.13" x2="605.02" y2="380.13"/>
<path class="st4" d="M494.93,625.38v-62.71c0,0-51.83-6.23-51.83-55.02c0-53.22,51.83-59.08,51.83-59.08v-75.91"/>
<g>
	<path class="st2" d="M336.03,827.5v2.69c0,1.35-0.26,2.62-0.76,3.82c-0.51,1.2-1.21,2.27-2.11,3.21c-0.9,0.94-1.95,1.68-3.15,2.23
		c-1.2,0.55-2.5,0.83-3.88,0.83c-1.18,0-2.39-0.16-3.61-0.49c-1.22-0.33-2.32-0.9-3.3-1.71c-0.98-0.82-1.78-1.87-2.42-3.15
		c-0.63-1.28-0.95-2.93-0.95-4.92v-23.98c0-1.43,0.24-2.75,0.73-3.98c0.49-1.22,1.18-2.28,2.08-3.18c0.9-0.9,1.97-1.6,3.21-2.11
		c1.24-0.51,2.62-0.76,4.13-0.76c2.94,0,5.32,0.96,7.16,2.88c0.9,0.94,1.6,2.05,2.11,3.33c0.51,1.28,0.76,2.68,0.76,4.19v2.45h-6.24
		v-2.08c0-1.22-0.35-2.28-1.04-3.18c-0.69-0.9-1.63-1.35-2.81-1.35c-1.55,0-2.58,0.48-3.09,1.44c-0.51,0.96-0.76,2.17-0.76,3.64
		v22.26c0,1.26,0.28,2.32,0.83,3.18c0.55,0.86,1.54,1.28,2.97,1.28c0.41,0,0.85-0.07,1.31-0.21c0.47-0.14,0.91-0.38,1.31-0.7
		c0.37-0.33,0.67-0.77,0.92-1.35c0.24-0.57,0.37-1.28,0.37-2.14v-2.14H336.03z"/>
	<path class="st2" d="M341.11,839.92v-43.55h6.24v18.66h7.71v-18.66h6.24v43.55h-6.24v-19.39h-7.71v19.39H341.11z"/>
	<path class="st2" d="M364.35,839.92l9.73-43.55h5.2l9.73,43.55h-6.24l-1.83-9.36h-8.5l-1.83,9.36H364.35z M379.77,824.69
		l-3.06-15.78h-0.12l-3.06,15.78H379.77z"/>
	<path class="st2" d="M392.06,839.92v-43.55h5.99l8.01,23.06h0.12l7.95-23.06h6.06v43.55h-6.24v-26.49h-0.12l-6.18,18.72h-3.12
		l-6.12-18.72h-0.12v26.49H392.06z"/>
	<path class="st2" d="M426.07,839.92v-43.55h9.36c1.71,0,3.22,0.22,4.53,0.67c1.3,0.45,2.49,1.24,3.55,2.39
		c1.06,1.14,1.79,2.48,2.2,4.01c0.41,1.53,0.61,3.6,0.61,6.21c0,1.96-0.11,3.61-0.34,4.95c-0.22,1.35-0.7,2.61-1.44,3.79
		c-0.86,1.43-2,2.54-3.43,3.33c-1.43,0.8-3.3,1.19-5.63,1.19h-3.18v17H426.07z M432.31,802.24v14.8h3c1.26,0,2.24-0.18,2.94-0.55
		c0.69-0.37,1.2-0.88,1.53-1.53c0.33-0.61,0.52-1.37,0.58-2.26c0.06-0.9,0.09-1.9,0.09-3c0-1.02-0.02-1.99-0.06-2.91
		c-0.04-0.92-0.22-1.72-0.55-2.42c-0.33-0.69-0.82-1.22-1.47-1.59c-0.65-0.37-1.59-0.55-2.81-0.55H432.31z"/>
	<path class="st2" d="M451.15,839.92v-43.55h6.24v43.55H451.15z"/>
	<path class="st2" d="M463.08,806.64c0-1.75,0.31-3.3,0.92-4.65c0.61-1.35,1.43-2.47,2.45-3.36c0.98-0.86,2.09-1.51,3.33-1.96
		c1.24-0.45,2.5-0.67,3.76-0.67c1.26,0,2.52,0.22,3.76,0.67c1.24,0.45,2.38,1.1,3.39,1.96c0.98,0.9,1.77,2.02,2.39,3.36
		c0.61,1.35,0.92,2.9,0.92,4.65v2.2h-6.24v-2.2c0-1.51-0.42-2.62-1.25-3.33c-0.84-0.71-1.83-1.07-2.97-1.07
		c-1.14,0-2.13,0.36-2.97,1.07c-0.84,0.71-1.25,1.83-1.25,3.33v23c0,1.51,0.42,2.62,1.25,3.33c0.84,0.71,1.82,1.07,2.97,1.07
		c1.14,0,2.13-0.36,2.97-1.07c0.84-0.71,1.25-1.82,1.25-3.33v-8.2h-4.95v-5.5H484v13.7c0,1.83-0.31,3.41-0.92,4.71
		c-0.61,1.31-1.41,2.39-2.39,3.24c-1.02,0.9-2.15,1.57-3.39,2.02c-1.24,0.45-2.5,0.67-3.76,0.67c-1.26,0-2.52-0.22-3.76-0.67
		c-1.24-0.45-2.35-1.12-3.33-2.02c-1.02-0.86-1.83-1.94-2.45-3.24c-0.61-1.3-0.92-2.87-0.92-4.71V806.64z"/>
	<path class="st2" d="M489.26,839.92v-43.55h5.99l9.42,26.24h0.12v-26.24h6.24v43.55h-5.87l-9.54-26.18h-0.12v26.18H489.26z"/>
	<path class="st2" d="M522.47,839.92V821.5l-8.56-25.14h6.61l5.02,17.31h0.12l5.02-17.31h6.61l-8.56,25.14v18.41H522.47z"/>
	<path class="st2" d="M551.77,839.92v-43.55H561c3.59,0,6.31,0.98,8.17,2.94c1.86,1.96,2.78,4.73,2.78,8.32v20.37
		c0,4.08-0.99,7.09-2.97,9.02c-1.98,1.94-4.82,2.91-8.53,2.91H551.77z M558.01,802.24v31.81h2.88c1.75,0,3-0.44,3.73-1.31
		c0.73-0.88,1.1-2.25,1.1-4.13v-20.98c0-1.71-0.35-3.04-1.04-3.98c-0.69-0.94-1.96-1.41-3.79-1.41H558.01z"/>
	<path class="st2" d="M577.82,839.92v-43.55h18.6v5.87h-12.36v12.78h10.77v5.87h-10.77v12.78h12.36v6.24H577.82z"/>
	<path class="st2" d="M620.64,808.9h-6.24v-1.41c0-1.43-0.34-2.66-1.01-3.7c-0.67-1.04-1.8-1.56-3.39-1.56
		c-0.86,0-1.55,0.16-2.08,0.49c-0.53,0.33-0.96,0.73-1.28,1.22c-0.33,0.53-0.55,1.13-0.67,1.8c-0.12,0.67-0.18,1.38-0.18,2.11
		c0,0.86,0.03,1.57,0.09,2.14c0.06,0.57,0.21,1.08,0.46,1.53c0.25,0.45,0.6,0.84,1.07,1.16c0.47,0.33,1.11,0.65,1.93,0.98l4.77,1.9
		c1.39,0.53,2.51,1.15,3.36,1.87c0.86,0.71,1.53,1.54,2.02,2.48c0.45,0.98,0.75,2.09,0.92,3.33c0.16,1.24,0.24,2.66,0.24,4.25
		c0,1.83-0.18,3.54-0.55,5.11c-0.37,1.57-0.96,2.91-1.77,4.01c-0.86,1.14-1.98,2.04-3.36,2.69c-1.39,0.65-3.08,0.98-5.08,0.98
		c-1.51,0-2.92-0.27-4.22-0.8s-2.43-1.26-3.36-2.2c-0.94-0.94-1.68-2.03-2.23-3.27c-0.55-1.24-0.83-2.6-0.83-4.07v-2.32h6.24v1.96
		c0,1.14,0.34,2.17,1.01,3.09c0.67,0.92,1.8,1.38,3.39,1.38c1.06,0,1.89-0.15,2.48-0.46c0.59-0.31,1.05-0.74,1.38-1.32
		c0.33-0.57,0.52-1.25,0.58-2.05c0.06-0.8,0.09-1.68,0.09-2.66c0-1.14-0.04-2.08-0.12-2.81c-0.08-0.73-0.25-1.32-0.49-1.77
		c-0.29-0.45-0.66-0.81-1.13-1.1c-0.47-0.28-1.09-0.59-1.87-0.92l-4.47-1.83c-2.69-1.1-4.5-2.56-5.41-4.37
		c-0.92-1.81-1.38-4.09-1.38-6.82c0-1.63,0.22-3.18,0.67-4.65c0.45-1.47,1.12-2.73,2.02-3.79c0.86-1.06,1.95-1.91,3.27-2.54
		c1.32-0.63,2.91-0.95,4.74-0.95c1.55,0,2.97,0.29,4.25,0.86c1.29,0.57,2.4,1.33,3.33,2.26c1.88,1.96,2.81,4.2,2.81,6.73V808.9z"/>
	<path class="st2" d="M625.47,839.92v-43.55h6.24v43.55H625.47z"/>
	<path class="st2" d="M637.4,806.64c0-1.75,0.31-3.3,0.92-4.65c0.61-1.35,1.43-2.47,2.45-3.36c0.98-0.86,2.09-1.51,3.33-1.96
		c1.24-0.45,2.5-0.67,3.76-0.67s2.52,0.22,3.76,0.67c1.24,0.45,2.38,1.1,3.4,1.96c0.98,0.9,1.77,2.02,2.38,3.36
		c0.61,1.35,0.92,2.9,0.92,4.65v2.2h-6.24v-2.2c0-1.51-0.42-2.62-1.25-3.33c-0.84-0.71-1.83-1.07-2.97-1.07s-2.13,0.36-2.97,1.07
		c-0.84,0.71-1.25,1.83-1.25,3.33v23c0,1.51,0.42,2.62,1.25,3.33c0.84,0.71,1.83,1.07,2.97,1.07s2.13-0.36,2.97-1.07
		c0.83-0.71,1.25-1.82,1.25-3.33v-8.2h-4.95v-5.5h11.19v13.7c0,1.83-0.31,3.41-0.92,4.71c-0.61,1.31-1.41,2.39-2.38,3.24
		c-1.02,0.9-2.15,1.57-3.4,2.02s-2.5,0.67-3.76,0.67s-2.52-0.22-3.76-0.67c-1.24-0.45-2.35-1.12-3.33-2.02
		c-1.02-0.86-1.83-1.94-2.45-3.24c-0.61-1.3-0.92-2.87-0.92-4.71V806.64z"/>
	<path class="st2" d="M663.58,839.92v-43.55h5.99l9.42,26.24h0.12v-26.24h6.24v43.55h-5.87l-9.54-26.18h-0.12v26.18H663.58z"/>
</g>
</svg>
